<svg width="30px" height="30px" class="sc-dfVpRl BzcdA" xmlns="http://www.w3.org/2000/svg" viewBox="0 0 100 100">
  <path fill="#fff" d="M82.5270099,18.9435134 L18.7856962,82.6877815 C18.1993406,83.2731404 17.2001014,82.8592298 17.2001014,82.0314085 L17.2001014,19.3929311 C17.2001014,18.2688796 18.1110829,17.3588849 19.2351002,17.3588849 L81.8706569,17.3588849 C82.698453,17.3588849 83.1113365,18.3591689 82.5270099,18.9435134 M0,1.72970012 L0,98.2713144 C0,99.2259465 0.775044382,100 1.72964748,100 L98.2703525,100 C99.2249556,100 100,99.2259465 100,98.2713144 L100,1.72970012 C100,0.774053484 99.2249556,0 98.2703525,0 L1.72964748,0 C0.775044382,0 0,0.774053484 0,1.72970012"/>
</svg>